<svg viewBox="0 0 520 520" xmlns="http://www.w3.org/2000/svg">
  <path
    d="M 260.232 0 C 60.233 -0.03 -64.796 216.58 35.175 389.902 C 135.15 563.225 385.148 563.259 485.172 389.97 C 507.988 350.441 520 305.6 520 259.957 C 520 116.4 403.702 0.019 260.232 0 Z M 359.337 313.718 C 359.337 338.792 339.021 359.119 313.963 359.119 L 206.463 359.119 C 181.405 359.119 161.089 338.792 161.089 313.718 L 161.089 206.159 C 161.089 181.082 181.405 160.758 206.463 160.758 L 313.963 160.758 C 339.021 160.758 359.337 181.082 359.337 206.159 L 359.337 313.718 Z"
    style="fill: rgb(0, 112, 240);"></path>
</svg>